{"glyphs":{"0":{"ha":671,"x_min":-41,"x_max":716,"o":"m 481 1061 q 685 901 625 1061 q 716 719 716 818 q 688 513 716 624 q 514 163 637 323 q 195 -33 363 -33 q -11 127 50 -33 q -41 304 -41 206 q -11 513 -41 400 q 161 864 39 704 q 481 1061 312 1061 m 433 724 q 281 602 358 724 q 194 414 218 506 q 182 326 182 365 q 209 235 182 270 q 296 195 240 195 q 433 275 372 195 q 503 426 481 339 q 514 627 529 528 q 433 724 498 724 z "},"1":{"ha":469,"x_min":69,"x_max":537,"o":"m 537 1001 q 355 58 397 471 l 127 -1 l 247 700 l 69 673 l 106 930 l 537 1001 z "},"2":{"ha":654,"x_min":-68,"x_max":684,"o":"m 61 625 q 300 1002 125 926 q 399 1024 349 1024 q 581 952 500 1024 q 684 735 684 861 q 579 500 684 616 q 351 347 503 415 q 206 245 236 296 l 559 269 l 529 15 l -65 -16 q -68 42 -68 14 q -14 271 -68 175 q 277 509 52 389 q 423 637 400 574 q 434 696 434 670 q 418 744 434 723 q 376 765 403 765 q 313 670 317 765 l 61 625 z "},"3":{"ha":637,"x_min":-41,"x_max":646,"o":"m 598 707 q 374 587 513 704 q 628 388 629 548 q 462 111 628 250 q 145 -15 296 -27 q -41 240 -28 0 l 210 275 q 205 247 205 259 q 228 224 205 224 q 250 228 237 224 q 339 285 308 244 q 351 315 351 300 q 220 376 351 376 q 28 359 148 376 l 75 587 q 311 746 198 669 q 83 722 195 736 l 99 979 l 646 1010 q 598 707 628 910 z "},"4":{"ha":618,"x_min":-34,"x_max":628,"o":"m 397 873 l 628 914 q 529 484 560 643 l 594 488 l 566 235 q 525 235 552 235 q 486 233 499 233 q 463 53 471 142 l 248 -1 l 286 224 q 20 199 155 216 l -34 315 l 149 970 l 406 1008 q 214 465 293 716 l 330 472 l 397 873 z "},"5":{"ha":613,"x_min":-15,"x_max":627,"o":"m 600 760 q 292 746 452 754 q 278 684 286 724 q 606 494 594 678 q 556 311 613 410 q 438 157 511 229 q 145 1 281 1 q 9 96 54 1 q -15 240 -15 148 q -8 357 -15 293 l 233 340 q 224 292 224 311 q 244 266 224 266 q 259 269 251 266 q 346 336 312 285 q 362 387 362 362 q 345 438 362 412 q 214 472 320 472 q 104 465 167 472 l 20 448 q 125 979 54 648 l 627 1013 l 600 760 z "},"6":{"ha":651,"x_min":-28,"x_max":651,"o":"m 444 1024 q 651 871 585 1024 l 490 670 q 461 711 476 690 q 425 735 442 735 q 250 564 340 735 q 406 593 332 593 q 528 570 471 593 q 621 435 621 533 q 613 373 621 407 q 467 127 581 241 q 214 4 343 4 q 9 153 75 4 q -28 349 -28 240 q -9 514 -28 426 q 144 844 30 694 q 444 1024 281 1024 m 332 237 q 404 312 404 269 q 391 353 404 334 q 358 372 378 372 q 264 349 363 372 q 186 326 224 339 q 269 222 198 222 q 332 237 296 222 z "},"7":{"ha":499,"x_min":12,"x_max":633,"o":"m 633 1029 l 233 22 l 12 -1 l 289 730 l 46 709 l 99 966 l 633 1029 z "},"8":{"ha":713,"x_min":-60,"x_max":730,"o":"m 568 597 q 688 393 688 529 q 681 334 688 365 q 519 91 651 194 q 245 -18 393 -7 q 5 58 94 -28 q -60 214 -60 122 q 27 441 -60 332 q 176 566 88 517 q 94 709 94 620 q 99 758 94 732 q 237 954 123 872 q 467 1038 345 1029 q 670 977 594 1046 q 730 848 730 924 q 724 802 730 826 q 568 597 699 682 m 407 789 q 332 759 368 787 q 297 693 297 731 q 374 639 297 633 q 450 668 415 642 q 484 734 484 694 q 460 777 484 761 q 407 789 435 792 m 349 448 q 237 403 289 444 q 183 300 183 358 q 221 232 183 255 q 300 216 254 213 q 411 260 361 220 q 467 362 467 305 q 431 429 467 407 q 349 448 395 450 z "},"9":{"ha":703,"x_min":20,"x_max":769,"o":"m 326 377 q 85 453 171 366 q 20 610 20 518 q 27 674 20 640 q 190 917 57 815 q 464 1027 316 1016 q 703 951 614 1038 q 769 792 769 884 q 707 602 769 696 q 427 9 534 275 l 216 49 l 378 384 q 326 377 363 380 m 361 557 q 452 595 410 562 q 495 675 495 629 q 466 729 495 711 q 400 745 437 747 q 311 708 351 741 q 264 625 264 673 q 296 571 264 589 q 361 557 323 555 z "}," ":{"ha":269,"x_min":0,"x_max":0,"o":""},"!":{"ha":407,"x_min":-49,"x_max":566,"o":"m 129 221 q 213 208 176 228 q 256 140 256 186 q 190 26 256 77 q 77 -23 138 -15 q -7 -12 28 -30 q -49 56 -49 9 q 15 171 -49 118 q 129 221 66 213 m 282 1065 l 566 1017 q 400 701 453 815 q 273 363 328 545 l 84 372 l 282 1065 z "},"\"":{"ha":671,"x_min":45,"x_max":774,"o":"m 427 1095 q 307 666 340 859 l 45 625 l 176 1076 l 427 1095 m 774 1095 q 654 666 688 859 l 392 625 l 524 1076 l 774 1095 z "},"#":{"ha":933,"x_min":-9,"x_max":952,"o":"m 267 958 l 500 1001 q 435 735 465 869 l 564 743 l 602 958 l 836 1001 q 774 755 802 879 l 952 766 l 917 562 q 823 558 886 560 q 731 555 761 556 q 708 438 718 495 l 880 449 l 857 244 q 674 236 796 241 q 662 148 667 191 l 651 58 l 435 -1 l 475 227 q 338 217 429 224 q 316 58 324 137 l 100 -1 l 136 201 q 71 194 102 197 l 4 189 l -9 395 l 171 406 l 191 518 q 61 506 127 514 l 58 712 l 227 723 l 267 958 m 392 534 q 369 418 385 495 l 509 426 l 530 544 q 392 534 484 541 z "},"$":{"ha":637,"x_min":4,"x_max":639,"o":"m 631 718 q 529 678 587 701 l 426 639 q 391 703 426 703 q 290 646 340 703 q 262 564 255 604 q 312 538 266 538 q 393 548 339 538 q 475 557 448 557 q 623 452 609 557 q 500 164 639 323 q 503 31 500 96 l 507 -102 l 368 -180 l 365 46 q 290 7 326 19 l 293 -83 q 297 -172 294 -127 l 157 -251 l 156 -22 q 24 12 87 -22 q 133 252 58 94 q 225 222 176 222 q 271 229 248 222 q 350 260 313 240 q 404 321 404 290 q 349 355 404 355 q 239 340 312 355 q 129 324 167 324 q 7 427 8 324 q 148 738 4 551 l 145 1065 l 298 1118 q 292 894 294 1013 q 357 945 321 920 l 355 1134 l 509 1188 l 505 1013 q 613 956 574 1021 q 637 826 637 914 q 631 718 637 779 z "},"%":{"ha":1057,"x_min":11,"x_max":1047,"o":"m 812 1013 l 1019 947 q 699 555 844 738 q 785 570 745 567 q 989 510 913 578 q 1047 381 1047 457 q 1042 335 1047 359 q 903 140 1017 221 q 675 56 798 64 q 524 80 590 50 q 423 191 446 117 q 260 -38 349 91 l 57 0 l 396 456 q 274 427 335 431 q 69 487 142 419 q 11 614 11 540 q 16 662 11 637 q 155 857 41 776 q 382 941 260 933 q 544 910 473 948 q 642 784 625 868 l 812 1013 m 726 321 q 651 290 686 317 q 616 225 616 263 q 642 180 616 195 q 693 171 663 168 q 768 201 734 175 q 802 266 802 228 q 778 309 802 294 q 726 321 754 324 m 323 693 q 248 663 283 690 q 213 597 213 635 q 292 543 213 537 q 365 572 331 545 q 399 637 399 600 q 375 680 399 665 q 323 693 351 696 z "},"&":{"ha":785,"x_min":-45,"x_max":803,"o":"m 673 471 q 692 411 685 445 q 692 334 699 378 q 543 91 669 194 q 275 -18 420 -7 q 57 37 149 -27 q -45 229 -45 106 q 31 441 -45 342 q 172 566 90 517 q 83 720 83 624 q 205 947 83 849 q 437 1038 309 1029 q 585 1015 517 1043 q 693 916 661 982 l 465 755 q 391 789 445 795 q 325 764 357 787 q 289 708 293 741 q 308 654 283 673 q 369 639 332 635 q 435 646 380 640 l 576 659 q 787 682 678 667 l 803 479 q 673 471 781 479 m 427 453 q 354 448 391 450 q 254 410 300 445 q 195 321 203 373 q 225 240 187 269 q 316 216 263 212 q 420 255 372 220 q 475 342 468 290 q 464 403 479 369 q 427 453 449 437 z "},"'":{"ha":335,"x_min":57,"x_max":439,"o":"m 439 1095 q 319 666 353 859 l 57 625 l 189 1076 l 439 1095 z "},"(":{"ha":483,"x_min":-31,"x_max":575,"o":"m 575 1050 q 212 477 285 758 q 197 362 197 418 q 416 -22 197 151 l 313 -119 q 212 -218 263 -168 q -31 317 -31 31 q -16 457 -31 385 q 381 1226 56 822 q 575 1050 446 1168 z "},")":{"ha":529,"x_min":-72,"x_max":534,"o":"m -72 -42 q 290 529 217 247 q 305 644 305 587 q 88 1029 305 856 q 190 1128 138 1078 l 292 1226 q 534 689 534 975 q 521 551 534 620 q 122 -218 449 184 l -72 -42 z "},"*":{"ha":564,"x_min":45,"x_max":610,"o":"m 610 856 q 453 760 534 811 l 574 673 l 463 553 q 381 616 449 563 q 370 502 374 559 l 217 475 l 237 623 q 180 583 218 609 q 122 544 141 557 l 45 655 l 195 750 q 76 830 140 788 l 170 966 l 275 888 l 294 1024 l 441 1025 l 429 958 q 419 891 423 924 l 559 979 l 610 856 z "},"+":{"ha":507,"x_min":42,"x_max":491,"o":"m 483 354 q 335 342 411 350 q 326 218 326 278 l 145 190 l 164 319 q 53 298 111 311 l 42 506 l 193 524 l 213 652 l 407 674 q 373 545 382 593 l 491 559 l 483 354 z "},",":{"ha":347,"x_min":-132,"x_max":302,"o":"m 302 229 q 125 -190 184 -5 l -132 -195 l 57 244 l 302 229 z "},"-":{"ha":524,"x_min":47,"x_max":496,"o":"m 488 354 q 61 298 243 335 l 47 506 l 496 559 l 488 354 z "},"‐":{"ha":524,"x_min":47,"x_max":496,"o":"m 488 354 q 61 298 243 335 l 47 506 l 496 559 l 488 354 z "},".":{"ha":399,"x_min":3,"x_max":309,"o":"m 208 222 q 279 201 248 222 q 309 140 309 179 q 245 26 309 77 q 104 -24 180 -24 q 35 -5 64 -24 q 3 56 3 18 q 67 170 3 118 q 208 222 132 222 z "},"/":{"ha":735,"x_min":-107,"x_max":853,"o":"m 648 1013 l 853 947 q 96 -38 395 400 l -107 0 l 648 1013 z "},":":{"ha":326,"x_min":-24,"x_max":361,"o":"m 180 393 q 252 372 221 393 q 282 311 282 350 q 218 197 282 248 q 77 145 153 145 q 8 165 37 145 q -24 227 -24 187 q 40 341 -24 289 q 180 393 104 393 m 259 761 q 330 739 300 761 q 361 678 361 718 q 296 564 361 616 q 156 513 232 513 q 87 533 115 513 q 54 594 54 555 q 119 709 54 656 q 259 761 183 761 z "},";":{"ha":353,"x_min":-157,"x_max":358,"o":"m 256 625 q 326 605 297 625 q 358 541 358 581 q 294 429 358 480 q 153 377 229 377 q 84 397 113 377 q 52 458 52 419 q 116 572 52 519 q 256 625 180 625 m 277 229 q 99 -190 159 -5 l -157 -195 l 31 244 l 277 229 z "},"=":{"ha":515,"x_min":27,"x_max":514,"o":"m 505 515 q 76 460 260 496 l 64 666 l 514 720 l 505 515 m 468 218 q 39 164 251 205 l 27 370 l 476 425 l 468 218 z "},"?":{"ha":589,"x_min":60,"x_max":671,"o":"m 239 221 q 326 207 286 228 q 366 140 366 186 q 301 26 366 77 q 187 -23 248 -15 q 103 -12 140 -30 q 60 56 60 9 q 125 171 60 118 q 239 221 176 213 m 140 959 q 487 1023 351 1023 q 670 895 671 1023 q 494 574 669 734 q 182 353 397 486 q 168 441 186 378 q 155 532 151 505 q 313 608 237 563 q 430 727 425 674 q 361 768 433 764 q 127 718 289 772 l 140 959 z "},"@":{"ha":1390,"x_min":-4,"x_max":1423,"o":"m 723 663 q 846 663 785 674 l 848 671 q 905 675 878 675 q 954 672 921 675 q 1001 669 986 669 q 1065 674 1032 669 q 1005 437 1032 547 l 947 199 q 1164 429 1119 323 q 1188 534 1188 486 q 1031 739 1188 663 q 747 800 903 800 q 355 663 494 800 q 251 396 251 559 q 321 119 251 277 l 49 -23 q -4 313 -4 164 q 117 722 -4 553 q 407 943 222 867 q 768 1012 572 1012 q 1194 917 1006 1012 q 1423 612 1423 800 q 1284 269 1423 475 q 895 -12 1169 98 l 750 92 l 769 205 q 547 144 663 144 q 410 183 465 144 q 345 307 345 229 q 481 549 345 435 q 723 663 590 640 m 663 415 q 589 377 625 408 q 552 309 552 346 q 610 262 552 262 q 701 297 658 262 q 742 355 735 323 q 722 404 749 388 q 663 415 696 420 z "},"A":{"ha":553,"x_min":-161,"x_max":574,"o":"m -161 -18 q 161 963 38 491 l 574 1032 q 510 60 503 621 l 222 -7 l 243 163 l 152 145 l 123 26 l -161 -18 m 264 345 l 327 857 l 326 857 l 198 332 l 264 345 z "},"B":{"ha":612,"x_min":-46,"x_max":651,"o":"m 96 954 q 259 990 140 960 q 425 1021 362 1015 q 472 1023 449 1023 q 650 895 651 1023 q 427 534 650 715 q 589 456 567 544 q 593 416 593 437 q 495 210 593 315 q 311 69 420 130 q 8 -4 179 -4 q -46 -3 -19 -4 q 71 745 7 275 q 96 954 90 878 m 240 389 q 217 250 229 338 q 408 382 408 308 q 361 410 408 410 q 240 389 319 410 m 315 753 q 294 663 304 708 l 275 574 q 416 715 374 635 q 426 743 426 732 q 391 766 426 766 q 315 753 363 766 z "},"C":{"ha":548,"x_min":-33,"x_max":648,"o":"m 441 1024 q 648 871 582 1024 l 495 703 q 423 735 464 735 q 274 612 351 735 q 191 422 210 510 q 182 346 182 380 q 248 221 182 255 q 294 210 270 210 q 442 315 365 210 l 486 153 q 213 4 351 4 q 7 153 72 4 q -33 347 -33 240 q -12 514 -33 426 q 142 844 28 694 q 441 1024 279 1024 z "},"D":{"ha":581,"x_min":-65,"x_max":635,"o":"m 96 959 q 361 1010 252 1010 q 547 947 483 1010 q 635 726 635 856 q 623 625 635 678 q 373 208 570 387 q -65 -1 176 30 q -37 176 -62 28 l 72 800 q 96 959 95 940 m 290 735 q 195 232 228 469 q 340 411 277 309 q 419 625 419 536 q 290 735 419 741 z "},"E":{"ha":500,"x_min":-64,"x_max":549,"o":"m 288 755 q 269 678 277 716 l 254 604 l 471 650 l 458 463 q 216 415 304 435 q 206 361 210 388 l 197 308 l 449 345 l 431 92 q -64 -1 236 76 l 98 971 l 549 1036 l 532 785 q 288 755 399 773 z "},"F":{"ha":502,"x_min":-65,"x_max":557,"o":"m 289 755 q 273 681 279 718 l 256 608 l 494 658 l 481 468 q 218 418 342 446 q 167 58 186 236 l -65 -1 l 94 971 l 557 1036 l 541 785 q 289 755 406 773 z "},"G":{"ha":663,"x_min":-42,"x_max":700,"o":"m 193 -33 q -11 122 49 -33 q -42 296 -42 199 q -14 495 -42 387 q 156 836 34 681 q 471 1024 304 1024 q 675 864 616 1024 l 525 703 q 453 739 500 739 q 279 612 361 739 q 189 399 218 515 q 176 316 176 353 q 205 227 176 260 q 292 189 236 189 q 410 247 355 189 q 480 363 453 293 q 294 321 380 343 l 338 522 l 697 598 q 659 396 700 510 q 568 212 623 296 q 193 -33 410 -33 z "},"H":{"ha":600,"x_min":-53,"x_max":685,"o":"m 111 958 l 362 1001 q 252 529 294 742 l 365 552 l 434 958 l 685 1001 q 503 58 541 446 l 270 -1 l 332 368 q 217 343 294 359 q 180 58 191 176 l -53 -1 l 111 958 z "},"I":{"ha":302,"x_min":-28,"x_max":372,"o":"m 138 958 l 372 1001 q 187 58 231 457 l -28 -1 l 138 958 z "},"J":{"ha":452,"x_min":-107,"x_max":519,"o":"m 289 958 l 519 1001 q 338 58 380 445 l 129 0 q 15 23 123 0 q -64 39 -28 31 l -107 49 l 11 288 l 168 262 l 289 958 z "},"K":{"ha":597,"x_min":-57,"x_max":682,"o":"m 109 958 l 342 1001 q 296 812 309 882 q 511 1010 414 916 l 682 899 l 415 662 l 564 110 l 320 -20 l 225 491 q 157 58 183 273 l -57 -1 l 109 958 z "},"L":{"ha":453,"x_min":-54,"x_max":434,"o":"m 113 958 l 346 1001 q 195 308 248 625 l 434 345 l 414 92 q -54 -1 229 76 l 113 958 z "},"M":{"ha":872,"x_min":-119,"x_max":876,"o":"m -119 -8 q 160 936 64 456 l 484 989 l 438 491 l 564 951 l 876 1005 q 821 208 821 563 q 822 68 821 137 l 544 19 l 593 613 l 415 -45 l 266 -65 l 355 770 l 163 30 l -119 -8 z "},"N":{"ha":632,"x_min":-54,"x_max":715,"o":"m 125 954 l 359 1001 q 357 882 357 959 q 369 557 357 697 q 389 429 376 477 l 481 958 l 715 1001 q 530 58 574 457 l 316 -1 q 298 46 315 1 l 228 247 q 208 309 210 296 q 163 -1 179 149 l -54 -66 l 125 954 z "},"O":{"ha":671,"x_min":-41,"x_max":716,"o":"m 481 1061 q 685 901 625 1061 q 716 719 716 818 q 688 513 716 624 q 514 163 637 323 q 195 -33 363 -33 q -11 127 50 -33 q -41 304 -41 206 q -11 513 -41 400 q 161 864 39 704 q 481 1061 312 1061 m 433 724 q 281 602 358 724 q 194 414 218 506 q 182 326 182 365 q 209 235 182 270 q 296 195 240 195 q 433 275 372 195 q 503 426 481 339 q 514 627 529 528 q 433 724 498 724 z "},"P":{"ha":499,"x_min":-61,"x_max":632,"o":"m 104 959 q 449 1023 315 1023 q 629 895 632 1023 q 198 365 625 639 q 155 58 168 199 l -61 -1 q -28 180 -57 28 l 31 502 q 104 959 111 945 m 275 742 q 258 666 266 704 l 243 591 q 406 723 369 654 q 411 741 411 734 q 377 764 411 764 q 275 742 345 764 z "},"Q":{"ha":713,"x_min":-34,"x_max":723,"o":"m 488 1061 q 692 901 631 1061 q 723 720 723 818 q 582 248 723 481 q 633 15 589 191 l 438 -109 l 408 47 q 202 -33 300 -33 q -3 127 57 -33 q -34 307 -34 209 q -5 513 -34 401 q 168 864 45 703 q 488 1061 320 1061 m 334 433 l 528 534 q 519 663 532 605 q 445 750 499 750 q 290 616 372 750 q 201 414 225 509 q 189 326 189 365 q 216 235 189 270 q 302 195 247 195 q 374 217 338 195 l 334 433 z "},"R":{"ha":553,"x_min":-62,"x_max":635,"o":"m 103 959 q 452 1023 316 1023 q 633 895 635 1023 q 403 528 632 712 q 560 203 422 476 q 347 12 490 138 l 202 387 l 201 387 l 201 387 q 152 58 168 209 l -62 -1 q -33 179 -60 28 l 103 959 m 274 745 q 252 652 262 699 l 233 560 q 327 624 281 585 q 397 712 380 670 q 404 735 404 724 q 365 765 404 765 q 274 745 334 765 z "},"S":{"ha":604,"x_min":-39,"x_max":601,"o":"m 594 718 q 491 678 551 701 l 389 639 q 354 703 389 703 q 254 646 304 703 q 224 564 218 604 q 275 538 228 538 q 343 547 301 538 q 446 559 401 559 q 579 480 560 559 q 585 429 585 456 q 519 241 585 342 q 283 20 435 110 q 126 -27 203 -27 q -12 12 56 -27 q 96 252 22 94 q 189 222 140 222 q 233 229 210 222 q 313 260 275 240 q 368 321 368 290 q 312 355 368 355 q 201 340 274 355 q 91 324 129 324 q 14 343 41 324 q -30 453 -39 378 q 164 802 -12 604 q 475 1015 345 1005 q 601 825 601 1023 q 594 718 601 777 z "},"T":{"ha":495,"x_min":35,"x_max":610,"o":"m 610 1015 l 602 762 q 422 749 507 757 q 301 58 332 373 l 72 -1 l 197 720 q 123 708 160 715 l 52 694 l 35 948 l 610 1015 z "},"U":{"ha":590,"x_min":-49,"x_max":669,"o":"m 119 958 l 351 1001 q 213 363 258 646 l 342 418 l 437 958 l 669 1001 q 486 58 528 445 l 269 -1 l 296 149 q -49 -1 182 99 l 119 958 z "},"V":{"ha":540,"x_min":23,"x_max":673,"o":"m 673 1001 q 384 53 511 559 l 23 -12 q 65 457 57 180 q 73 929 69 693 l 345 990 l 228 125 l 229 125 l 427 956 l 673 1001 z "},"W":{"ha":800,"x_min":-11,"x_max":930,"o":"m 930 1009 q 658 62 747 524 l 354 11 l 404 509 l 278 47 l -11 -5 q 53 930 54 505 l 311 979 l 258 385 l 434 1044 l 572 1065 l 479 228 l 667 968 l 930 1009 z "},"X":{"ha":549,"x_min":-133,"x_max":682,"o":"m 496 95 l 281 -39 l 256 92 q 232 227 244 159 l 167 109 q 103 -8 134 49 l -133 12 l 174 496 q 64 891 121 718 l 255 1035 l 330 743 l 506 1020 l 682 958 q 392 503 538 751 l 496 95 z "},"Y":{"ha":525,"x_min":5,"x_max":678,"o":"m 460 978 l 678 940 q 214 9 385 426 l 5 23 l 149 326 l 35 871 l 300 993 q 294 837 296 930 q 304 650 293 743 l 460 978 z "},"Z":{"ha":661,"x_min":-43,"x_max":727,"o":"m 692 738 q 467 494 635 681 q 354 372 410 433 q 251 247 281 292 l 571 269 l 543 15 q -43 -27 191 5 l -42 224 q 184 472 15 290 l 419 723 q 168 692 302 713 l 178 948 l 727 991 q 692 738 715 907 z "},"\\":{"ha":684,"x_min":57,"x_max":616,"o":"m 290 1013 l 616 0 l 396 -38 q 57 947 282 395 l 290 1013 z "},"a":{"ha":553,"x_min":-161,"x_max":574,"o":"m -161 -18 q 161 963 38 491 l 574 1032 q 510 60 503 621 l 222 -7 l 243 163 l 152 145 l 123 26 l -161 -18 m 264 345 l 327 857 l 326 857 l 198 332 l 264 345 z "},"b":{"ha":612,"x_min":-46,"x_max":651,"o":"m 96 954 q 259 990 140 960 q 425 1021 362 1015 q 472 1023 449 1023 q 650 895 651 1023 q 427 534 650 715 q 589 456 567 544 q 593 416 593 437 q 495 210 593 315 q 311 69 420 130 q 8 -4 179 -4 q -46 -3 -19 -4 q 71 745 7 275 q 96 954 90 878 m 240 389 q 217 250 229 338 q 408 382 408 308 q 361 410 408 410 q 240 389 319 410 m 315 753 q 294 663 304 708 l 275 574 q 416 715 374 635 q 426 743 426 732 q 391 766 426 766 q 315 753 363 766 z "},"c":{"ha":548,"x_min":-33,"x_max":648,"o":"m 441 1024 q 648 871 582 1024 l 495 703 q 423 735 464 735 q 274 612 351 735 q 191 422 210 510 q 182 346 182 380 q 248 221 182 255 q 294 210 270 210 q 442 315 365 210 l 486 153 q 213 4 351 4 q 7 153 72 4 q -33 347 -33 240 q -12 514 -33 426 q 142 844 28 694 q 441 1024 279 1024 z "},"d":{"ha":581,"x_min":-65,"x_max":635,"o":"m 96 959 q 361 1010 252 1010 q 547 947 483 1010 q 635 726 635 856 q 623 625 635 678 q 373 208 570 387 q -65 -1 176 30 q -37 176 -62 28 l 72 800 q 96 959 95 940 m 290 735 q 195 232 228 469 q 340 411 277 309 q 419 625 419 536 q 290 735 419 741 z "},"e":{"ha":500,"x_min":-64,"x_max":549,"o":"m 288 755 q 269 678 277 716 l 254 604 l 471 650 l 458 463 q 216 415 304 435 q 206 361 210 388 l 197 308 l 449 345 l 431 92 q -64 -1 236 76 l 98 971 l 549 1036 l 532 785 q 288 755 399 773 z "},"f":{"ha":502,"x_min":-65,"x_max":557,"o":"m 289 755 q 273 681 279 718 l 256 608 l 494 658 l 481 468 q 218 418 342 446 q 167 58 186 236 l -65 -1 l 94 971 l 557 1036 l 541 785 q 289 755 406 773 z "},"g":{"ha":663,"x_min":-42,"x_max":700,"o":"m 193 -33 q -11 122 49 -33 q -42 296 -42 199 q -14 495 -42 387 q 156 836 34 681 q 471 1024 304 1024 q 675 864 616 1024 l 525 703 q 453 739 500 739 q 279 612 361 739 q 189 399 218 515 q 176 316 176 353 q 205 227 176 260 q 292 189 236 189 q 410 247 355 189 q 480 363 453 293 q 294 321 380 343 l 338 522 l 697 598 q 659 396 700 510 q 568 212 623 296 q 193 -33 410 -33 z "},"h":{"ha":600,"x_min":-53,"x_max":685,"o":"m 111 958 l 362 1001 q 252 529 294 742 l 365 552 l 434 958 l 685 1001 q 503 58 541 446 l 270 -1 l 332 368 q 217 343 294 359 q 180 58 191 176 l -53 -1 l 111 958 z "},"i":{"ha":302,"x_min":-28,"x_max":372,"o":"m 138 958 l 372 1001 q 187 58 231 457 l -28 -1 l 138 958 z "},"j":{"ha":452,"x_min":-107,"x_max":519,"o":"m 289 958 l 519 1001 q 338 58 380 445 l 129 0 q 15 23 123 0 q -64 39 -28 31 l -107 49 l 11 288 l 168 262 l 289 958 z "},"k":{"ha":597,"x_min":-57,"x_max":682,"o":"m 109 958 l 342 1001 q 296 812 311 882 q 511 1010 414 916 l 682 899 l 415 662 l 566 110 l 320 -20 l 225 491 q 159 58 183 273 l -57 -1 l 109 958 z "},"l":{"ha":453,"x_min":-54,"x_max":434,"o":"m 113 958 l 346 1001 q 195 308 248 625 l 434 345 l 414 92 q -54 -1 229 76 l 113 958 z "},"m":{"ha":872,"x_min":-119,"x_max":876,"o":"m -119 -8 q 160 936 64 456 l 484 989 l 438 491 l 564 951 l 876 1005 q 821 208 821 563 q 822 68 821 137 l 544 19 l 593 613 l 415 -45 l 266 -65 l 355 770 l 163 30 l -119 -8 z "},"n":{"ha":632,"x_min":-54,"x_max":715,"o":"m 125 954 l 359 1001 q 357 882 357 959 q 369 557 357 697 q 389 429 376 477 l 481 958 l 715 1001 q 530 58 574 457 l 316 -1 q 298 46 315 1 l 228 247 q 208 309 210 296 q 163 -1 179 149 l -54 -66 l 125 954 z "},"o":{"ha":671,"x_min":-41,"x_max":716,"o":"m 481 1061 q 685 901 625 1061 q 716 719 716 818 q 688 513 716 624 q 514 163 637 323 q 195 -33 363 -33 q -11 127 50 -33 q -41 304 -41 206 q -11 513 -41 400 q 161 864 39 704 q 481 1061 312 1061 m 433 724 q 281 602 358 724 q 194 414 218 506 q 182 326 182 365 q 209 235 182 270 q 296 195 240 195 q 433 275 372 195 q 503 426 481 339 q 514 627 529 528 q 433 724 498 724 z "},"p":{"ha":499,"x_min":-61,"x_max":632,"o":"m 104 959 q 449 1023 315 1023 q 629 895 632 1023 q 198 365 625 639 q 155 58 168 199 l -61 -1 q -28 180 -57 28 l 31 502 q 104 959 111 945 m 275 742 q 258 666 266 704 l 243 591 q 406 723 369 654 q 411 741 411 734 q 377 764 411 764 q 275 742 345 764 z "},"q":{"ha":713,"x_min":-34,"x_max":723,"o":"m 488 1061 q 692 901 631 1061 q 723 720 723 818 q 582 248 723 481 q 633 15 589 191 l 438 -109 l 408 47 q 202 -33 300 -33 q -3 127 57 -33 q -34 307 -34 209 q -5 513 -34 401 q 168 864 45 703 q 488 1061 320 1061 m 334 433 l 528 534 q 519 663 532 605 q 445 750 499 750 q 290 616 372 750 q 201 414 225 509 q 189 326 189 365 q 216 235 189 270 q 302 195 247 195 q 374 217 338 195 l 334 433 z "},"r":{"ha":553,"x_min":-62,"x_max":635,"o":"m 103 959 q 452 1023 316 1023 q 633 895 635 1023 q 403 528 632 712 q 560 203 422 476 q 347 12 490 138 l 202 387 l 201 387 l 201 387 q 152 58 168 209 l -62 -1 q -33 179 -60 28 l 103 959 m 274 745 q 252 652 262 699 l 233 560 q 327 624 281 585 q 397 712 380 670 q 404 735 404 724 q 365 765 404 765 q 274 745 334 765 z "},"s":{"ha":604,"x_min":-39,"x_max":601,"o":"m 594 718 q 491 678 551 701 l 389 639 q 354 703 389 703 q 254 646 304 703 q 224 564 218 604 q 275 538 228 538 q 343 547 301 538 q 446 559 401 559 q 579 480 560 559 q 585 429 585 456 q 519 241 585 342 q 283 20 435 110 q 126 -27 203 -27 q -12 12 56 -27 q 96 252 22 94 q 189 222 140 222 q 233 229 210 222 q 313 260 275 240 q 368 321 368 290 q 312 355 368 355 q 201 340 274 355 q 91 324 129 324 q 14 343 41 324 q -30 453 -39 378 q 164 802 -12 604 q 475 1015 345 1005 q 601 825 601 1023 q 594 718 601 777 z "},"t":{"ha":495,"x_min":35,"x_max":610,"o":"m 610 1015 l 602 762 q 422 749 507 757 q 301 58 332 373 l 72 -1 l 197 720 q 123 708 160 715 l 52 694 l 35 948 l 610 1015 z "},"u":{"ha":590,"x_min":-49,"x_max":669,"o":"m 119 958 l 351 1001 q 213 363 258 646 l 342 418 l 437 958 l 669 1001 q 486 58 528 445 l 269 -1 l 296 149 q -49 -1 182 99 l 119 958 z "},"v":{"ha":540,"x_min":23,"x_max":673,"o":"m 673 1001 q 384 53 511 559 l 23 -12 q 65 457 57 180 q 73 929 69 693 l 345 990 l 228 125 l 229 125 l 427 956 l 673 1001 z "},"w":{"ha":800,"x_min":-11,"x_max":930,"o":"m 930 1009 q 658 62 747 524 l 354 11 l 404 509 l 278 47 l -11 -5 q 53 930 54 505 l 311 979 l 258 385 l 434 1044 l 572 1065 l 479 228 l 667 968 l 930 1009 z "},"x":{"ha":549,"x_min":-133,"x_max":682,"o":"m 496 95 l 281 -39 l 256 92 q 232 227 244 159 l 167 109 q 103 -8 134 49 l -133 12 l 174 496 q 64 891 121 718 l 255 1035 l 330 743 l 506 1020 l 682 958 q 392 503 538 751 l 496 95 z "},"y":{"ha":525,"x_min":5,"x_max":678,"o":"m 460 978 l 678 940 q 214 9 385 426 l 5 23 l 149 326 l 35 871 l 300 993 q 294 837 296 930 q 304 650 293 743 l 460 978 z "},"z":{"ha":661,"x_min":-43,"x_max":727,"o":"m 692 738 q 467 494 635 681 q 354 372 410 433 q 251 247 281 292 l 571 269 l 543 15 q -43 -27 191 5 l -42 224 q 184 472 15 290 l 419 723 q 168 692 302 713 l 178 948 l 727 991 q 692 738 715 907 z "},"‘":{"ha":335,"x_min":57,"x_max":439,"o":"m 439 1095 q 319 666 353 859 l 57 625 l 189 1076 l 439 1095 z "},"’":{"ha":335,"x_min":57,"x_max":439,"o":"m 439 1095 q 319 666 353 859 l 57 625 l 189 1076 l 439 1095 z "},"“":{"ha":671,"x_min":45,"x_max":774,"o":"m 427 1095 q 307 666 340 859 l 45 625 l 176 1076 l 427 1095 m 774 1095 q 654 666 688 859 l 392 625 l 524 1076 l 774 1095 z "},"”":{"ha":671,"x_min":45,"x_max":774,"o":"m 427 1095 q 307 666 340 859 l 45 625 l 176 1076 l 427 1095 m 774 1095 q 654 666 688 859 l 392 625 l 524 1076 l 774 1095 z "}}}
